<?xml version="1.0" encoding="utf-8"?>
<!-- Generator: Adobe Illustrator 14.0.0, SVG Export Plug-In . SVG Version: 6.00 Build 43363)  -->
<!DOCTYPE svg PUBLIC "-//W3C//DTD SVG 1.1//EN" "http://www.w3.org/Graphics/SVG/1.1/DTD/svg11.dtd">
<svg version="1.1" id="Layer_1" xmlns="http://www.w3.org/2000/svg" xmlns:xlink="http://www.w3.org/1999/xlink" x="0px" y="0px"
	 width="512px" height="512px" viewBox="0 0 512 512" enable-background="new 0 0 512 512" xml:space="preserve">
<path fill="#008C44" d="M467,270c-11.766,0-23.348,4.477-31.641,12.082c-9.363-17.637-22.617-33.258-38.684-45.266
	C377.25,222.293,354.785,213.461,331,210.84V180h15c74.438,0,135-60.563,135-135c0-8.285-6.715-15-15-15h-30
	c-53.906,0-100.531,31.766-122.152,77.559C295.074,78.941,262.711,60,226,60h-30c-8.285,0-15,6.715-15,15
	c0,57.898,47.102,105,105,105h15v30.852c-35.5,3.973-68.086,21.93-90.52,50.047c-28.602-4.008-58.395,0.391-85.652,13.715
	C124.773,274.641,72.438,301,72.438,301H15c-8.285,0-15,6.715-15,15v119.184c0,8.285,6.715,15,15,15c0.758,0,1.5-0.074,2.227-0.184
	c0,0,36.246-0.016,58.813-0.008c23.23,0.012,45.852,4.652,67.242,13.797C168.441,474.547,195.074,480,222.438,480H391
	c4.695,0,9.121-2.199,11.957-5.941l100.059-132.074C508.895,334.145,512,324.816,512,315C512,290.188,491.813,270,467,270z M436,60
	h13.934c-7.301,50.816-51.129,90-103.934,90h-13.934C339.367,99.184,383.195,60,436,60z M286,150c-36.219,0-66.523-25.809-73.492-60
	H226c36.219,0,66.523,25.809,73.492,60H286z M316,240c43.293,0,81.414,26.059,97.367,65.664l-24.375,26.164
	C383.309,313.414,366.188,300,346,300h-48.68c-3.648,0-7.168-1.328-9.91-3.738c-13.316-11.719-28.305-20.688-44.203-26.848
	C262.609,250.73,288.605,240,316,240z M479.059,323.926L383.547,450H222.438c-23.285,0-45.953-4.641-67.363-13.797
	c-25.133-10.742-51.719-16.199-79.02-16.211c-15.91-0.008-33.766-0.004-46.055,0V331h46c2.344,0,4.652-0.551,6.746-1.602
	l55.34-27.871c42.293-20.641,93.324-14.586,129.508,17.254C275.813,326.016,286.371,330,297.32,330H346c8.27,0,15,6.813,15,15.184
	c0,7.516-5.563,13.738-12.781,14.816H224.395c-8.285,0-15,6.715-15,15s6.715,15,15,15c0,0,132.023-0.191,132.281-0.191
	c12.168,0,23.898-4.926,32.305-13.953c0,0,66.531-71.465,66.766-71.758C458.5,301.625,462.871,300,467,300c8.27,0,15,6.73,15,15
	C482,318.273,480.969,321.379,479.059,323.926z"/>
</svg>
