<?xml version="1.0" encoding="utf-8"?>
<!-- Generator: Adobe Illustrator 14.0.0, SVG Export Plug-In . SVG Version: 6.00 Build 43363)  -->
<!DOCTYPE svg PUBLIC "-//W3C//DTD SVG 1.1//EN" "http://www.w3.org/Graphics/SVG/1.1/DTD/svg11.dtd">
<svg version="1.1" id="Capa_1" xmlns="http://www.w3.org/2000/svg" xmlns:xlink="http://www.w3.org/1999/xlink" x="0px" y="0px"
	 width="512px" height="512px" viewBox="0 0 512 512" enable-background="new 0 0 512 512" xml:space="preserve">
<g>
	<path fill="#FF9000" d="M497,421.75h-15.125V376.5c0-8.284-6.716-15-15-15h-45.25v-14.95c0-78.005-54.208-143.576-126.93-161.049
		c2.945-6.005,4.604-12.749,4.604-19.875c0-17.522-25.548-131.305-30.67-153.936C267.083,4.854,261.009,0,254,0
		s-13.083,4.854-14.63,11.689c-5.122,22.631-30.67,136.413-30.67,153.936c0,7.482,1.835,14.541,5.061,20.766
		C142.829,205.113,90.375,269.816,90.375,346.55v14.95h-45.25c-8.284,0-15,6.716-15,15v45.25H15c-8.284,0-15,6.716-15,15V497
		c0,8.284,6.716,15,15,15h482c8.284,0,15-6.716,15-15v-60.25C512,428.466,505.284,421.75,497,421.75L497,421.75z M301.125,361.5
		v-44.162c0-5.703-1.045-11.165-2.943-16.213h85.609c5.066,14.208,7.834,29.499,7.834,45.425v14.95H301.125z M238.7,317.338
		c0-8.938,7.272-16.213,16.212-16.213c8.939,0,16.213,7.273,16.213,16.213V361.5H238.7V317.338z M254,84.869
		c8.674,40.723,15.259,74.381,15.3,80.759c-0.002,8.436-6.864,15.297-15.3,15.297c-8.437,0-15.3-6.863-15.3-15.296
		C238.741,159.251,245.326,125.592,254,84.869L254,84.869z M256,210.925c46.891,0,88.296,23.922,112.663,60.2H143.337
		C167.704,234.847,209.109,210.925,256,210.925L256,210.925z M120.375,346.55c0-15.926,2.768-31.216,7.834-45.425h83.434
		c-1.898,5.048-2.943,10.51-2.943,16.213V361.5h-88.325V346.55z M60.125,391.5h391.75v30.25H60.125V391.5z M482,482H30v-30.25h452
		V482z"/>
</g>
</svg>
