<?xml version="1.0" encoding="utf-8"?>
<!-- Generator: Adobe Illustrator 14.0.0, SVG Export Plug-In . SVG Version: 6.00 Build 43363)  -->
<!DOCTYPE svg PUBLIC "-//W3C//DTD SVG 1.1//EN" "http://www.w3.org/Graphics/SVG/1.1/DTD/svg11.dtd">
<svg version="1.1" id="Capa_1" xmlns="http://www.w3.org/2000/svg" xmlns:xlink="http://www.w3.org/1999/xlink" x="0px" y="0px"
	 width="512px" height="512px" viewBox="0 0 512 512" enable-background="new 0 0 512 512" xml:space="preserve">
<g>
	<g>
		<path fill="#002561" d="M477.77,242.154L391,206v-6c0-8.284-6.716-15-15-15s-15,6.716-15,15v117.745
			c-3.402-1.739-7.023-3.143-10.828-4.157L271,292.477v-37.438c19.616-17.416,32-42.806,32-71.039v-69.367
			c23.393-9.209,40-32.011,40-58.633V15c0-8.284-6.716-15-15-15H184c-39.149,0-71,31.85-71,71v113c0,28.233,12.384,53.623,32,71.039
			v37.438l-79.172,21.112C41.789,319.999,25,341.852,25,366.731V497c0,8.284,6.716,15,15,15h344c25.918,0,47-21.949,47-48v-16
			c0-23.537-17.393-43.086-40-46.476V306l86.77-36.154c5.591-2.328,9.23-7.791,9.23-13.846
			C487,249.945,483.359,244.483,477.77,242.154z M143,71c0-22.607,18.393-41,41-41h129v26c0,18.196-14.805,33-33,33H143V71z
			 M143,184v-65h130v65c0,35.841-29.159,65-65,65S143,219.841,143,184z M208,343c16.6,0,32.219-8.14,43.195-15.745L208,389.648
			l-43.195-62.393C175.781,334.86,191.4,343,208,343z M175,297.339v-24.254c21.222,7.888,44.762,7.894,66,0v24.251
			C233.276,303.77,219.649,313,208,313C196.344,313,182.708,303.759,175,297.339z M176,401c-8.284,0-15,6.716-15,15v66H55V366.731
			c0-11.31,7.631-21.242,18.558-24.156l55.179-14.714L179.371,401H176z M225,482h-34v-51h34V482z M324.488,482H255v-66
			c0-8.284-6.716-15-15-15h-3.371l50.635-73.139l55.178,14.714C353.368,345.489,361,355.423,361,366.731v34.792
			c-22.607,3.391-40,22.938-40,46.476v16C321,470.24,322.2,476.331,324.488,482L324.488,482z M401,448v16c0,9.589-7.943,18-17,18
			h-16c-9.057,0-17-8.411-17-18v-16c0-9.374,7.626-17,17-17h16C393.374,431,401,438.626,401,448z M391,273.5v-35l42,17.5L391,273.5z
			"/>
	</g>
</g>
</svg>
